# xmcd CD database file
#
# Track frame offsets:
#	150
#	19506
#	40058
#	61198
#	82891
#	102994
#	120367
#	139454
#	159145
#	185301
#	207629
#	232872
#	254106
#	295785
#	313677
#
# Disc length: 4387 seconds
#
# Revision: 0
# Processed by: cddbd v1.5.1PL0 Copyright (c) Steve Scherf et al.
# Submitted via: CDex 1.51
#
DISCID=c511210f
DTITLE=Olga Tañon - Exitos 3
DYEAR=2004
DGENRE=Salsa
TTITLE0=Cuando tu no estas
TTITLE1=Tu amor
TTITLE2=Vendras llorando
TTITLE3=Ya me canse
TTITLE4=Escondidos (a duo con Cristian Castro)
TTITLE5=Llego el amor
TTITLE6=Ojos negros
TTITLE7=A partir de hoy
TTITLE8=Presencie tu amor
TTITLE9=Muchacho malo
TTITLE10=El papel del malo
TTITLE11=Como olvidar (Merengue)
TTITLE12=Tu amor (Mix)
TTITLE13=Sobrevivir
TTITLE14=Hielo y fuego
EXTD=YEAR: 2004
EXTT0=
EXTT1=
EXTT2=
EXTT3=
EXTT4=
EXTT5=
EXTT6=
EXTT7=
EXTT8=
EXTT9=
EXTT10=
EXTT11=
EXTT12=
EXTT13=
EXTT14=
PLAYORDER=
